<svg xmlns="http://www.w3.org/2000/svg" xmlns:xlink="http://www.w3.org/1999/xlink" width="500" zoomAndPan="magnify" viewBox="0 0 375 374.999991" height="500" preserveAspectRatio="xMidYMid meet" version="1.0"><defs><clipPath id="68e6b0d68d"><path d="M 37.5 37.5 L 337.5 37.5 L 337.5 337.5 L 37.5 337.5 Z M 37.5 37.5 " clip-rule="nonzero"/></clipPath></defs><path fill="#ffffff" d="M 83.960938 135.332031 L 112.734375 135.332031 C 113.097656 135.332031 113.457031 135.367188 113.8125 135.4375 C 114.167969 135.507812 114.511719 135.613281 114.847656 135.753906 C 115.183594 135.890625 115.5 136.0625 115.800781 136.261719 C 116.101562 136.464844 116.382812 136.691406 116.636719 136.949219 C 116.894531 137.207031 117.121094 137.484375 117.324219 137.785156 C 117.523438 138.085938 117.695312 138.40625 117.832031 138.738281 C 117.972656 139.074219 118.078125 139.417969 118.148438 139.773438 C 118.21875 140.128906 118.253906 140.488281 118.253906 140.851562 L 118.253906 299.125 C 118.253906 299.484375 118.21875 299.84375 118.148438 300.199219 C 118.078125 300.554688 117.972656 300.902344 117.832031 301.234375 C 117.695312 301.570312 117.523438 301.886719 117.324219 302.1875 C 117.121094 302.492188 116.894531 302.769531 116.636719 303.027344 C 116.382812 303.28125 116.101562 303.511719 115.800781 303.710938 C 115.5 303.914062 115.183594 304.082031 114.847656 304.222656 C 114.511719 304.359375 114.167969 304.464844 113.8125 304.535156 C 113.457031 304.605469 113.097656 304.640625 112.734375 304.640625 L 83.960938 304.640625 C 83.597656 304.640625 83.238281 304.605469 82.882812 304.535156 C 82.527344 304.464844 82.183594 304.359375 81.847656 304.222656 C 81.515625 304.082031 81.195312 303.914062 80.894531 303.710938 C 80.59375 303.511719 80.3125 303.28125 80.058594 303.027344 C 79.800781 302.769531 79.574219 302.492188 79.371094 302.1875 C 79.171875 301.886719 79 301.570312 78.863281 301.234375 C 78.722656 300.902344 78.617188 300.554688 78.546875 300.199219 C 78.476562 299.84375 78.441406 299.484375 78.441406 299.125 L 78.441406 140.851562 C 78.441406 140.488281 78.476562 140.128906 78.546875 139.773438 C 78.617188 139.417969 78.722656 139.074219 78.863281 138.738281 C 79 138.40625 79.171875 138.085938 79.371094 137.785156 C 79.574219 137.484375 79.800781 137.207031 80.058594 136.949219 C 80.3125 136.691406 80.59375 136.464844 80.894531 136.261719 C 81.195312 136.0625 81.515625 135.890625 81.847656 135.753906 C 82.183594 135.613281 82.527344 135.507812 82.882812 135.4375 C 83.238281 135.367188 83.597656 135.332031 83.960938 135.332031 Z M 83.960938 135.332031 " fill-opacity="1" fill-rule="nonzero"/><path fill="#ffffff" d="M 121.527344 96.285156 C 121.480469 82.714844 111.746094 72.875 98.347656 72.875 C 84.949219 72.875 74.84375 82.976562 74.84375 96.378906 C 74.84375 102.613281 77.121094 108.414062 81.246094 112.710938 C 85.492188 117.125 91.332031 119.554688 97.695312 119.554688 C 104.746094 119.554688 111.039062 117.074219 115.417969 112.535156 C 119.519531 108.289062 121.6875 102.558594 121.527344 96.378906 C 121.527344 96.347656 121.527344 96.328125 121.527344 96.285156 Z M 121.527344 96.285156 " fill-opacity="1" fill-rule="nonzero"/><path fill="#ffffff" d="M 279.140625 146.464844 C 264.8125 133.648438 248.023438 131.734375 239.285156 131.734375 C 226.234375 131.734375 213.800781 135.222656 203.316406 141.820312 C 198.734375 144.707031 194.597656 148.128906 190.902344 152.082031 L 190.179688 140.496094 C 190.15625 140.148438 190.101562 139.804688 190.015625 139.46875 C 189.929688 139.128906 189.8125 138.804688 189.664062 138.488281 C 189.515625 138.175781 189.339844 137.875 189.132812 137.59375 C 188.929688 137.3125 188.699219 137.050781 188.445312 136.8125 C 188.191406 136.574219 187.917969 136.363281 187.625 136.175781 C 187.328125 135.992188 187.019531 135.835938 186.695312 135.707031 C 186.371094 135.578125 186.039062 135.480469 185.695312 135.417969 C 185.355469 135.351562 185.007812 135.320312 184.660156 135.320312 L 159.167969 135.320312 C 158.789062 135.320312 158.414062 135.359375 158.042969 135.4375 C 157.671875 135.515625 157.308594 135.628906 156.960938 135.78125 C 156.613281 135.933594 156.285156 136.121094 155.976562 136.339844 C 155.667969 136.558594 155.382812 136.808594 155.125 137.085938 C 154.867188 137.367188 154.636719 137.667969 154.441406 137.992188 C 154.246094 138.316406 154.085938 138.660156 153.960938 139.019531 C 153.835938 139.378906 153.75 139.746094 153.699219 140.121094 C 153.648438 140.496094 153.640625 140.875 153.667969 141.253906 C 154.570312 153.332031 154.957031 166.023438 154.957031 183.679688 L 154.957031 299.125 C 154.957031 299.484375 154.992188 299.84375 155.066406 300.199219 C 155.136719 300.554688 155.238281 300.902344 155.378906 301.234375 C 155.515625 301.570312 155.6875 301.886719 155.886719 302.1875 C 156.089844 302.492188 156.320312 302.769531 156.574219 303.027344 C 156.832031 303.28125 157.109375 303.511719 157.410156 303.710938 C 157.710938 303.914062 158.03125 304.082031 158.363281 304.222656 C 158.699219 304.359375 159.042969 304.464844 159.398438 304.535156 C 159.753906 304.605469 160.113281 304.640625 160.476562 304.640625 L 189.253906 304.640625 C 189.617188 304.640625 189.976562 304.605469 190.332031 304.535156 C 190.6875 304.464844 191.03125 304.359375 191.367188 304.222656 C 191.699219 304.082031 192.019531 303.914062 192.320312 303.710938 C 192.621094 303.511719 192.902344 303.28125 193.15625 303.027344 C 193.414062 302.769531 193.640625 302.492188 193.84375 302.1875 C 194.042969 301.886719 194.214844 301.570312 194.351562 301.234375 C 194.492188 300.902344 194.597656 300.554688 194.667969 300.199219 C 194.738281 299.84375 194.773438 299.484375 194.773438 299.125 L 194.773438 203.964844 C 194.773438 199.492188 195.367188 195.292969 196.402344 192.441406 C 196.433594 192.351562 196.464844 192.261719 196.492188 192.164062 C 200.382812 179.472656 212.191406 166.636719 229.804688 166.636719 C 240.703125 166.636719 248.527344 170.367188 253.726562 178.03125 C 258.417969 184.964844 260.902344 195.289062 260.902344 207.882812 L 260.902344 299.125 C 260.902344 299.484375 260.9375 299.84375 261.007812 300.199219 C 261.078125 300.554688 261.183594 300.902344 261.320312 301.234375 C 261.460938 301.570312 261.628906 301.886719 261.832031 302.1875 C 262.03125 302.492188 262.261719 302.769531 262.515625 303.027344 C 262.773438 303.28125 263.050781 303.511719 263.355469 303.710938 C 263.65625 303.914062 263.972656 304.082031 264.308594 304.222656 C 264.640625 304.359375 264.988281 304.464844 265.34375 304.535156 C 265.699219 304.605469 266.058594 304.640625 266.417969 304.640625 L 295.199219 304.640625 C 295.558594 304.640625 295.917969 304.605469 296.273438 304.535156 C 296.628906 304.464844 296.972656 304.359375 297.308594 304.222656 C 297.644531 304.082031 297.960938 303.914062 298.261719 303.710938 C 298.5625 303.511719 298.84375 303.28125 299.097656 303.027344 C 299.355469 302.769531 299.585938 302.492188 299.785156 302.1875 C 299.988281 301.886719 300.15625 301.570312 300.296875 301.234375 C 300.433594 300.902344 300.539062 300.554688 300.609375 300.199219 C 300.679688 299.84375 300.714844 299.484375 300.714844 299.125 L 300.714844 204.617188 C 300.714844 191.152344 298.679688 179.21875 294.667969 169.148438 C 291.0625 160.089844 285.839844 152.457031 279.140625 146.464844 Z M 279.140625 146.464844 " fill-opacity="1" fill-rule="nonzero"/><g clip-path="url(#68e6b0d68d)"><path fill="#ffffff" d="M 331.65625 -5.761719 L 43.910156 -5.761719 C 15.984375 -5.761719 -6.734375 16.960938 -6.734375 44.886719 L -6.734375 332.628906 C -6.734375 360.554688 15.984375 383.277344 43.910156 383.277344 L 331.65625 383.277344 C 359.582031 383.277344 382.304688 360.554688 382.304688 332.628906 L 382.304688 44.886719 C 382.304688 16.960938 359.582031 -5.761719 331.65625 -5.761719 Z M 346.742188 47.339844 L 346.742188 330.179688 C 346.742188 330.753906 346.710938 331.324219 346.65625 331.894531 C 346.597656 332.46875 346.511719 333.035156 346.402344 333.597656 C 346.289062 334.160156 346.148438 334.71875 345.980469 335.265625 C 345.8125 335.816406 345.621094 336.355469 345.402344 336.886719 C 345.179688 337.417969 344.933594 337.933594 344.664062 338.441406 C 344.394531 338.945312 344.097656 339.4375 343.78125 339.917969 C 343.460938 340.394531 343.117188 340.855469 342.753906 341.296875 C 342.390625 341.742188 342.003906 342.167969 341.597656 342.574219 C 341.191406 342.980469 340.769531 343.363281 340.324219 343.726562 C 339.878906 344.09375 339.417969 344.433594 338.941406 344.753906 C 338.464844 345.074219 337.972656 345.367188 337.46875 345.636719 C 336.960938 345.910156 336.441406 346.15625 335.910156 346.375 C 335.382812 346.59375 334.839844 346.789062 334.292969 346.957031 C 333.742188 347.121094 333.1875 347.261719 332.625 347.375 C 332.0625 347.488281 331.492188 347.570312 330.921875 347.628906 C 330.351562 347.683594 329.777344 347.714844 329.203125 347.714844 L 46.363281 347.714844 C 45.789062 347.714844 45.21875 347.683594 44.644531 347.628906 C 44.074219 347.570312 43.507812 347.488281 42.945312 347.375 C 42.382812 347.261719 41.824219 347.121094 41.277344 346.957031 C 40.726562 346.789062 40.1875 346.59375 39.65625 346.375 C 39.125 346.15625 38.605469 345.910156 38.101562 345.636719 C 37.59375 345.367188 37.101562 345.074219 36.625 344.753906 C 36.148438 344.433594 35.6875 344.09375 35.242188 343.726562 C 34.800781 343.363281 34.375 342.980469 33.96875 342.574219 C 33.5625 342.167969 33.179688 341.742188 32.8125 341.296875 C 32.449219 340.855469 32.109375 340.394531 31.789062 339.917969 C 31.46875 339.4375 31.175781 338.945312 30.902344 338.441406 C 30.632812 337.933594 30.386719 337.417969 30.167969 336.886719 C 29.945312 336.355469 29.753906 335.816406 29.585938 335.265625 C 29.417969 334.71875 29.28125 334.160156 29.167969 333.597656 C 29.054688 333.035156 28.96875 332.46875 28.914062 331.894531 C 28.855469 331.324219 28.828125 330.753906 28.828125 330.179688 L 28.828125 47.339844 C 28.828125 46.765625 28.855469 46.191406 28.914062 45.621094 C 28.96875 45.046875 29.054688 44.480469 29.167969 43.917969 C 29.28125 43.355469 29.417969 42.800781 29.585938 42.25 C 29.753906 41.699219 29.945312 41.160156 30.167969 40.628906 C 30.386719 40.101562 30.632812 39.582031 30.902344 39.074219 C 31.175781 38.570312 31.46875 38.078125 31.789062 37.601562 C 32.109375 37.121094 32.449219 36.660156 32.8125 36.21875 C 33.179688 35.773438 33.5625 35.347656 33.96875 34.941406 C 34.375 34.539062 34.800781 34.152344 35.242188 33.789062 C 35.6875 33.421875 36.148438 33.082031 36.625 32.761719 C 37.101562 32.445312 37.59375 32.148438 38.101562 31.878906 C 38.605469 31.605469 39.125 31.359375 39.65625 31.140625 C 40.1875 30.921875 40.726562 30.726562 41.277344 30.558594 C 41.824219 30.394531 42.382812 30.253906 42.945312 30.140625 C 43.507812 30.027344 44.074219 29.945312 44.644531 29.886719 C 45.21875 29.832031 45.789062 29.800781 46.363281 29.800781 L 329.203125 29.800781 C 329.777344 29.800781 330.351562 29.832031 330.921875 29.886719 C 331.492188 29.945312 332.0625 30.027344 332.625 30.140625 C 333.1875 30.253906 333.742188 30.394531 334.292969 30.558594 C 334.839844 30.726562 335.382812 30.921875 335.910156 31.140625 C 336.441406 31.359375 336.960938 31.605469 337.46875 31.878906 C 337.972656 32.148438 338.464844 32.445312 338.941406 32.761719 C 339.417969 33.082031 339.878906 33.421875 340.324219 33.789062 C 340.769531 34.152344 341.191406 34.539062 341.597656 34.941406 C 342.003906 35.347656 342.390625 35.773438 342.753906 36.21875 C 343.117188 36.660156 343.460938 37.121094 343.78125 37.601562 C 344.097656 38.078125 344.394531 38.570312 344.664062 39.074219 C 344.933594 39.582031 345.179688 40.101562 345.402344 40.628906 C 345.621094 41.160156 345.8125 41.699219 345.980469 42.25 C 346.148438 42.800781 346.289062 43.355469 346.402344 43.917969 C 346.511719 44.480469 346.597656 45.046875 346.65625 45.621094 C 346.710938 46.191406 346.742188 46.765625 346.742188 47.339844 Z M 346.742188 47.339844 " fill-opacity="1" fill-rule="nonzero"/></g></svg>