<svg xmlns="http://www.w3.org/2000/svg" xmlns:xlink="http://www.w3.org/1999/xlink" width="500" zoomAndPan="magnify" viewBox="0 0 375 374.999991" height="500" preserveAspectRatio="xMidYMid meet" version="1.0"><defs><g/><clipPath id="c000d01218"><path d="M 13.382812 41.238281 L 367.710938 41.238281 L 367.710938 246.976562 L 13.382812 246.976562 Z M 13.382812 41.238281 " clip-rule="nonzero"/></clipPath><clipPath id="8773af19c2"><path d="M 115 41.238281 L 251 41.238281 L 251 246.976562 L 115 246.976562 Z M 115 41.238281 " clip-rule="nonzero"/></clipPath></defs><g clip-path="url(#c000d01218)"><path fill="#ffffff" d="M 202.539062 197.851562 C 203.585938 196.167969 204.582031 194.457031 205.523438 192.714844 C 206.160156 191.554688 206.773438 190.378906 207.359375 189.183594 C 208.539062 186.804688 209.628906 184.371094 210.621094 181.890625 C 210.867188 181.273438 211.117188 180.644531 211.351562 180.019531 C 211.574219 179.433594 211.792969 178.84375 212 178.246094 C 212.082031 178.011719 212.164062 177.78125 212.25 177.542969 C 212.402344 177.109375 212.550781 176.671875 212.699219 176.230469 C 212.828125 175.835938 212.953125 175.441406 213.082031 175.050781 C 213.164062 174.804688 213.242188 174.558594 213.3125 174.3125 C 213.429688 173.941406 213.542969 173.574219 213.652344 173.207031 C 213.796875 172.742188 213.929688 172.269531 214.058594 171.800781 C 214.191406 171.34375 214.320312 170.878906 214.445312 170.417969 C 214.597656 169.84375 214.75 169.265625 214.894531 168.6875 C 214.992188 168.28125 215.09375 167.867188 215.191406 167.460938 C 215.261719 167.175781 215.324219 166.890625 215.386719 166.605469 C 215.476562 166.226562 215.558594 165.847656 215.636719 165.472656 C 215.714844 165.136719 215.78125 164.804688 215.847656 164.46875 C 215.914062 164.15625 215.976562 163.835938 216.042969 163.519531 C 216.238281 162.5 216.429688 161.464844 216.59375 160.429688 C 216.703125 159.753906 216.8125 159.082031 216.90625 158.390625 C 217.015625 157.632812 217.113281 156.875 217.203125 156.113281 C 217.246094 155.769531 217.289062 155.417969 217.324219 155.066406 C 217.433594 154.078125 217.527344 153.085938 217.609375 152.085938 C 217.632812 151.789062 217.65625 151.492188 217.679688 151.191406 C 217.703125 150.824219 217.730469 150.464844 217.75 150.097656 C 217.769531 149.765625 217.789062 149.429688 217.808594 149.09375 C 217.828125 148.628906 217.851562 148.15625 217.867188 147.6875 C 217.875 147.449219 217.886719 147.199219 217.894531 146.953125 C 217.925781 145.898438 217.941406 144.839844 217.941406 143.777344 C 217.941406 138.285156 217.507812 132.886719 216.671875 127.621094 C 216.667969 127.5625 216.660156 127.5 216.644531 127.441406 C 216.550781 126.855469 216.453125 126.269531 216.347656 125.679688 L 216.339844 125.621094 C 216.226562 125 216.109375 124.375 215.988281 123.757812 C 215.617188 121.898438 215.199219 120.058594 214.730469 118.238281 L 214.730469 118.230469 C 210.351562 101.238281 201.714844 85.925781 190.035156 73.519531 L 190.089844 73.519531 C 171.394531 53.640625 144.84375 41.230469 115.398438 41.230469 L 13.398438 41.230469 L 13.398438 73.519531 L 115.398438 73.519531 C 154.136719 73.519531 185.648438 105.035156 185.648438 143.769531 C 185.648438 162.53125 178.347656 180.175781 165.074219 193.449219 C 151.808594 206.71875 134.160156 214.023438 115.398438 214.023438 L 13.398438 214.023438 L 13.398438 246.320312 L 115.398438 246.320312 C 145.042969 246.320312 171.75 233.742188 190.464844 213.628906 C 191.03125 213.023438 191.585938 212.421875 192.121094 211.808594 C 192.664062 211.191406 193.203125 210.574219 193.738281 209.949219 C 194.074219 209.542969 194.417969 209.136719 194.746094 208.730469 C 194.882812 208.566406 195.015625 208.410156 195.144531 208.25 C 195.421875 207.90625 195.699219 207.558594 195.96875 207.207031 L 196.007812 207.160156 C 196.167969 206.964844 196.328125 206.765625 196.472656 206.570312 C 196.578125 206.429688 196.683594 206.292969 196.789062 206.15625 C 196.898438 206.015625 197.003906 205.878906 197.109375 205.738281 C 197.289062 205.5 197.46875 205.261719 197.652344 205.015625 C 197.800781 204.820312 197.949219 204.617188 198.097656 204.414062 C 198.402344 204 198.703125 203.582031 199 203.167969 C 199.082031 203.054688 199.167969 202.933594 199.25 202.808594 C 199.375 202.640625 199.492188 202.46875 199.613281 202.304688 C 199.8125 202.011719 200.015625 201.714844 200.214844 201.421875 C 200.273438 201.34375 200.328125 201.261719 200.375 201.183594 C 201.117188 200.09375 201.835938 198.980469 202.53125 197.863281 Z M 349.035156 143.777344 C 349.464844 143.367188 349.910156 142.960938 350.335938 142.53125 C 361.539062 131.320312 367.71875 116.425781 367.71875 100.570312 C 367.71875 67.851562 341.097656 41.230469 308.375 41.230469 L 202.070312 41.230469 C 213.1875 50.363281 222.785156 61.277344 230.4375 73.519531 L 308.375 73.519531 C 323.285156 73.519531 335.421875 85.660156 335.421875 100.570312 C 335.421875 107.792969 332.605469 114.585938 327.5 119.703125 C 322.394531 124.816406 315.597656 127.621094 308.375 127.621094 L 249.5625 127.621094 C 250.207031 132.921875 250.539062 138.304688 250.539062 143.777344 C 250.539062 149.242188 250.207031 154.628906 249.5625 159.917969 L 308.375 159.917969 C 323.285156 159.917969 335.421875 172.050781 335.421875 186.964844 C 335.421875 194.1875 332.605469 200.992188 327.5 206.097656 C 322.390625 211.207031 315.59375 214.023438 308.375 214.023438 L 230.4375 214.023438 C 222.785156 226.273438 213.1875 237.175781 202.070312 246.320312 L 308.375 246.320312 C 324.222656 246.320312 339.121094 240.144531 350.34375 228.929688 C 361.546875 217.71875 367.71875 202.808594 367.71875 186.964844 C 367.71875 169.960938 360.527344 154.609375 349.035156 143.777344 " fill-opacity="1" fill-rule="nonzero"/></g><g clip-path="url(#8773af19c2)"><path fill="#000000" d="M 190.105469 214.023438 C 190.230469 213.894531 190.351562 213.761719 190.464844 213.628906 C 171.75 233.742188 145.042969 246.320312 115.398438 246.320312 L 202.070312 246.320312 C 213.1875 237.175781 222.785156 226.273438 230.4375 214.023438 Z M 249.5625 127.621094 L 216.671875 127.621094 C 217.507812 132.886719 217.941406 138.285156 217.941406 143.777344 C 217.941406 149.195312 217.515625 154.519531 216.703125 159.710938 C 216.789062 159.773438 216.871094 159.839844 216.949219 159.917969 L 249.5625 159.917969 C 250.207031 154.628906 250.539062 149.242188 250.539062 143.777344 C 250.539062 138.304688 250.207031 132.921875 249.5625 127.621094 Z M 230.4375 73.519531 L 190.089844 73.519531 C 171.394531 53.640625 144.84375 41.230469 115.398438 41.230469 L 202.070312 41.230469 C 213.1875 50.363281 222.785156 61.277344 230.4375 73.519531 " fill-opacity="1" fill-rule="nonzero"/></g><g fill="#ffffff" fill-opacity="1"><g transform="translate(11.913321, 328.010191)"><g><path d="M 30.8125 -12.03125 C 30.8125 -10.382812 30.472656 -8.828125 29.796875 -7.359375 C 29.117188 -5.898438 28.148438 -4.625 26.890625 -3.53125 C 25.628906 -2.445312 24.101562 -1.585938 22.3125 -0.953125 C 20.53125 -0.316406 18.539062 0 16.34375 0 L 3.5625 0 L 3.5625 -24.96875 L 16.34375 -24.96875 C 18.539062 -24.96875 20.53125 -24.65625 22.3125 -24.03125 C 24.101562 -23.40625 25.628906 -22.539062 26.890625 -21.4375 C 28.148438 -20.34375 29.117188 -19.054688 29.796875 -17.578125 C 30.472656 -16.109375 30.8125 -14.535156 30.8125 -12.859375 Z M 26.125 -12.78125 C 26.125 -13.976562 25.890625 -15.085938 25.421875 -16.109375 C 24.960938 -17.140625 24.304688 -18.015625 23.453125 -18.734375 C 22.609375 -19.460938 21.570312 -20.03125 20.34375 -20.4375 C 19.125 -20.851562 17.753906 -21.0625 16.234375 -21.0625 L 8.25 -21.0625 L 8.25 -3.828125 L 16.234375 -3.828125 C 17.753906 -3.828125 19.125 -4.03125 20.34375 -4.4375 C 21.570312 -4.851562 22.609375 -5.4375 23.453125 -6.1875 C 24.304688 -6.9375 24.960938 -7.820312 25.421875 -8.84375 C 25.890625 -9.875 26.125 -10.988281 26.125 -12.1875 Z M 26.125 -12.78125 "/></g></g></g><g fill="#ffffff" fill-opacity="1"><g transform="translate(44.780245, 328.010191)"><g><path d="M 3.5625 0 L 3.5625 -24.96875 L 8.25 -24.96875 L 8.25 0 Z M 3.5625 0 "/></g></g></g><g fill="#ffffff" fill-opacity="1"><g transform="translate(56.58535, 328.010191)"><g><path d="M 3.5625 0 L 3.5625 -24.96875 L 26.234375 -24.96875 L 26.234375 -21.0625 L 8.25 -21.0625 L 8.25 -14.65625 L 22.078125 -14.65625 L 22.078125 -10.875 L 8.25 -10.875 L 8.25 -3.890625 L 26.234375 -3.890625 L 26.234375 0 Z M 3.5625 0 "/></g></g></g><g fill="#ffffff" fill-opacity="1"><g transform="translate(85.067517, 328.010191)"><g><path d="M 27.40625 0 L 26.6875 -3.375 C 25.488281 -1.976562 24.046875 -0.90625 22.359375 -0.15625 C 20.671875 0.59375 18.765625 0.96875 16.640625 0.96875 C 14.421875 0.96875 12.414062 0.617188 10.625 -0.078125 C 8.84375 -0.773438 7.3125 -1.722656 6.03125 -2.921875 C 4.757812 -4.117188 3.78125 -5.503906 3.09375 -7.078125 C 2.40625 -8.660156 2.0625 -10.3125 2.0625 -12.03125 L 2.0625 -12.484375 C 2.0625 -14.253906 2.4375 -15.945312 3.1875 -17.5625 C 3.9375 -19.175781 4.984375 -20.597656 6.328125 -21.828125 C 7.679688 -23.066406 9.300781 -24.046875 11.1875 -24.765625 C 13.070312 -25.492188 15.164062 -25.859375 17.46875 -25.859375 C 18.863281 -25.859375 20.191406 -25.722656 21.453125 -25.453125 C 22.722656 -25.179688 23.898438 -24.816406 24.984375 -24.359375 C 26.066406 -23.910156 27.039062 -23.382812 27.90625 -22.78125 C 28.769531 -22.1875 29.515625 -21.550781 30.140625 -20.875 L 27.21875 -17.921875 C 26.632812 -18.441406 25.992188 -18.9375 25.296875 -19.40625 C 24.597656 -19.882812 23.828125 -20.3125 22.984375 -20.6875 C 22.148438 -21.0625 21.265625 -21.359375 20.328125 -21.578125 C 19.390625 -21.804688 18.425781 -21.921875 17.4375 -21.921875 C 15.6875 -21.921875 14.144531 -21.664062 12.8125 -21.15625 C 11.488281 -20.644531 10.378906 -19.957031 9.484375 -19.09375 C 8.585938 -18.238281 7.910156 -17.25 7.453125 -16.125 C 7.003906 -15 6.78125 -13.820312 6.78125 -12.59375 L 6.78125 -12.1875 C 6.78125 -10.957031 7.015625 -9.785156 7.484375 -8.671875 C 7.960938 -7.566406 8.644531 -6.585938 9.53125 -5.734375 C 10.425781 -4.878906 11.507812 -4.203125 12.78125 -3.703125 C 14.050781 -3.210938 15.488281 -2.96875 17.09375 -2.96875 C 18.289062 -2.96875 19.398438 -3.132812 20.421875 -3.46875 C 21.453125 -3.800781 22.328125 -4.25 23.046875 -4.8125 C 23.773438 -5.375 24.34375 -6.007812 24.75 -6.71875 C 25.164062 -7.4375 25.375 -8.171875 25.375 -8.921875 L 25.375 -9.1875 L 17.6875 -9.1875 L 17.6875 -12.890625 L 30.40625 -12.890625 L 30.40625 0 Z M 27.40625 0 "/></g></g></g><g fill="#ffffff" fill-opacity="1"><g transform="translate(118.121826, 328.010191)"><g><path d="M 31.265625 -12.03125 C 31.265625 -10.382812 30.921875 -8.78125 30.234375 -7.21875 C 29.546875 -5.65625 28.5625 -4.265625 27.28125 -3.046875 C 26.007812 -1.835938 24.472656 -0.863281 22.671875 -0.125 C 20.878906 0.601562 18.867188 0.96875 16.640625 0.96875 C 14.421875 0.96875 12.414062 0.601562 10.625 -0.125 C 8.84375 -0.863281 7.3125 -1.835938 6.03125 -3.046875 C 4.757812 -4.265625 3.78125 -5.65625 3.09375 -7.21875 C 2.40625 -8.78125 2.0625 -10.382812 2.0625 -12.03125 L 2.0625 -12.859375 C 2.0625 -14.535156 2.40625 -16.160156 3.09375 -17.734375 C 3.78125 -19.304688 4.757812 -20.691406 6.03125 -21.890625 C 7.3125 -23.085938 8.84375 -24.046875 10.625 -24.765625 C 12.414062 -25.492188 14.421875 -25.859375 16.640625 -25.859375 C 18.867188 -25.859375 20.878906 -25.492188 22.671875 -24.765625 C 24.472656 -24.046875 26.007812 -23.085938 27.28125 -21.890625 C 28.5625 -20.691406 29.546875 -19.304688 30.234375 -17.734375 C 30.921875 -16.160156 31.265625 -14.535156 31.265625 -12.859375 Z M 26.53125 -12.78125 C 26.53125 -13.976562 26.3125 -15.132812 25.875 -16.25 C 25.445312 -17.363281 24.8125 -18.335938 23.96875 -19.171875 C 23.132812 -20.003906 22.101562 -20.671875 20.875 -21.171875 C 19.65625 -21.671875 18.242188 -21.921875 16.640625 -21.921875 C 15.046875 -21.921875 13.632812 -21.671875 12.40625 -21.171875 C 11.1875 -20.671875 10.15625 -20.003906 9.3125 -19.171875 C 8.476562 -18.335938 7.847656 -17.363281 7.421875 -16.25 C 6.992188 -15.132812 6.78125 -13.976562 6.78125 -12.78125 L 6.78125 -12.1875 C 6.78125 -10.988281 6.992188 -9.832031 7.421875 -8.71875 C 7.847656 -7.601562 8.476562 -6.617188 9.3125 -5.765625 C 10.15625 -4.921875 11.1875 -4.242188 12.40625 -3.734375 C 13.632812 -3.222656 15.046875 -2.96875 16.640625 -2.96875 C 18.242188 -2.96875 19.65625 -3.222656 20.875 -3.734375 C 22.101562 -4.242188 23.132812 -4.921875 23.96875 -5.765625 C 24.8125 -6.617188 25.445312 -7.601562 25.875 -8.71875 C 26.3125 -9.832031 26.53125 -10.988281 26.53125 -12.1875 Z M 26.53125 -12.78125 "/></g></g></g><g fill="#ffffff" fill-opacity="1"><g transform="translate(151.438468, 328.010191)"><g/></g></g><g fill="#ffffff" fill-opacity="1"><g transform="translate(163.843198, 328.010191)"><g><path d="M 28.453125 -6.75 C 28.453125 -5.71875 28.234375 -4.789062 27.796875 -3.96875 C 27.359375 -3.144531 26.71875 -2.4375 25.875 -1.84375 C 25.039062 -1.257812 24.007812 -0.804688 22.78125 -0.484375 C 21.5625 -0.160156 20.175781 0 18.625 0 L 3.5625 0 L 3.5625 -24.96875 L 18.515625 -24.96875 C 21.640625 -24.96875 24.003906 -24.375 25.609375 -23.1875 C 27.222656 -22 28.03125 -20.429688 28.03125 -18.484375 L 28.03125 -18.140625 C 28.03125 -17.492188 27.925781 -16.863281 27.71875 -16.25 C 27.507812 -15.632812 27.1875 -15.078125 26.75 -14.578125 C 26.3125 -14.078125 25.765625 -13.640625 25.109375 -13.265625 C 24.460938 -12.890625 23.703125 -12.613281 22.828125 -12.4375 C 23.828125 -12.289062 24.679688 -12.023438 25.390625 -11.640625 C 26.109375 -11.253906 26.691406 -10.8125 27.140625 -10.3125 C 27.585938 -9.8125 27.914062 -9.28125 28.125 -8.71875 C 28.34375 -8.15625 28.453125 -7.609375 28.453125 -7.078125 Z M 23.546875 -17.625 C 23.546875 -18.570312 23.1875 -19.378906 22.46875 -20.046875 C 21.757812 -20.722656 20.539062 -21.0625 18.8125 -21.0625 L 8.25 -21.0625 L 8.25 -14.0625 L 18.59375 -14.0625 C 20.3125 -14.0625 21.566406 -14.40625 22.359375 -15.09375 C 23.148438 -15.78125 23.546875 -16.582031 23.546875 -17.5 Z M 23.546875 -7.34375 C 23.546875 -7.820312 23.453125 -8.265625 23.265625 -8.671875 C 23.078125 -9.085938 22.78125 -9.453125 22.375 -9.765625 C 21.976562 -10.078125 21.46875 -10.328125 20.84375 -10.515625 C 20.21875 -10.703125 19.46875 -10.796875 18.59375 -10.796875 L 8.25 -10.796875 L 8.25 -3.75 L 18.8125 -3.75 C 19.664062 -3.75 20.390625 -3.84375 20.984375 -4.03125 C 21.585938 -4.21875 22.078125 -4.46875 22.453125 -4.78125 C 22.828125 -5.09375 23.101562 -5.457031 23.28125 -5.875 C 23.457031 -6.300781 23.546875 -6.753906 23.546875 -7.234375 Z M 23.546875 -7.34375 "/></g></g></g><g fill="#ffffff" fill-opacity="1"><g transform="translate(194.648915, 328.010191)"><g><path d="M 29.6875 -10.390625 C 29.6875 -8.835938 29.429688 -7.375 28.921875 -6 C 28.410156 -4.625 27.609375 -3.414062 26.515625 -2.375 C 25.429688 -1.34375 24.046875 -0.53125 22.359375 0.0625 C 20.671875 0.664062 18.65625 0.96875 16.3125 0.96875 C 14.0625 0.96875 12.113281 0.679688 10.46875 0.109375 C 8.832031 -0.460938 7.472656 -1.253906 6.390625 -2.265625 C 5.304688 -3.273438 4.5 -4.472656 3.96875 -5.859375 C 3.445312 -7.253906 3.1875 -8.765625 3.1875 -10.390625 L 3.1875 -24.96875 L 7.828125 -24.96875 L 7.828125 -10.3125 C 7.828125 -7.988281 8.570312 -6.179688 10.0625 -4.890625 C 11.550781 -3.609375 13.742188 -2.96875 16.640625 -2.96875 C 19.585938 -2.96875 21.71875 -3.613281 23.03125 -4.90625 C 24.34375 -6.207031 25 -8.007812 25 -10.3125 L 25 -24.96875 L 29.6875 -24.96875 Z M 29.6875 -10.390625 "/></g></g></g><g fill="#ffffff" fill-opacity="1"><g transform="translate(227.515839, 328.010191)"><g><path d="M 27.40625 0 L 26.6875 -3.375 C 25.488281 -1.976562 24.046875 -0.90625 22.359375 -0.15625 C 20.671875 0.59375 18.765625 0.96875 16.640625 0.96875 C 14.421875 0.96875 12.414062 0.617188 10.625 -0.078125 C 8.84375 -0.773438 7.3125 -1.722656 6.03125 -2.921875 C 4.757812 -4.117188 3.78125 -5.503906 3.09375 -7.078125 C 2.40625 -8.660156 2.0625 -10.3125 2.0625 -12.03125 L 2.0625 -12.484375 C 2.0625 -14.253906 2.4375 -15.945312 3.1875 -17.5625 C 3.9375 -19.175781 4.984375 -20.597656 6.328125 -21.828125 C 7.679688 -23.066406 9.300781 -24.046875 11.1875 -24.765625 C 13.070312 -25.492188 15.164062 -25.859375 17.46875 -25.859375 C 18.863281 -25.859375 20.191406 -25.722656 21.453125 -25.453125 C 22.722656 -25.179688 23.898438 -24.816406 24.984375 -24.359375 C 26.066406 -23.910156 27.039062 -23.382812 27.90625 -22.78125 C 28.769531 -22.1875 29.515625 -21.550781 30.140625 -20.875 L 27.21875 -17.921875 C 26.632812 -18.441406 25.992188 -18.9375 25.296875 -19.40625 C 24.597656 -19.882812 23.828125 -20.3125 22.984375 -20.6875 C 22.148438 -21.0625 21.265625 -21.359375 20.328125 -21.578125 C 19.390625 -21.804688 18.425781 -21.921875 17.4375 -21.921875 C 15.6875 -21.921875 14.144531 -21.664062 12.8125 -21.15625 C 11.488281 -20.644531 10.378906 -19.957031 9.484375 -19.09375 C 8.585938 -18.238281 7.910156 -17.25 7.453125 -16.125 C 7.003906 -15 6.78125 -13.820312 6.78125 -12.59375 L 6.78125 -12.1875 C 6.78125 -10.957031 7.015625 -9.785156 7.484375 -8.671875 C 7.960938 -7.566406 8.644531 -6.585938 9.53125 -5.734375 C 10.425781 -4.878906 11.507812 -4.203125 12.78125 -3.703125 C 14.050781 -3.210938 15.488281 -2.96875 17.09375 -2.96875 C 18.289062 -2.96875 19.398438 -3.132812 20.421875 -3.46875 C 21.453125 -3.800781 22.328125 -4.25 23.046875 -4.8125 C 23.773438 -5.375 24.34375 -6.007812 24.75 -6.71875 C 25.164062 -7.4375 25.375 -8.171875 25.375 -8.921875 L 25.375 -9.1875 L 17.6875 -9.1875 L 17.6875 -12.890625 L 30.40625 -12.890625 L 30.40625 0 Z M 27.40625 0 "/></g></g></g><g fill="#ffffff" fill-opacity="1"><g transform="translate(260.570149, 328.010191)"><g><path d="M 26.609375 0 L 23.3125 -6.1875 L 8.65625 -6.1875 L 5.46875 0 L 0.53125 0 L 14.015625 -24.96875 L 17.921875 -24.96875 L 31.640625 0 Z M 15.859375 -20.09375 L 10.421875 -9.59375 L 21.484375 -9.59375 Z M 15.859375 -20.09375 "/></g></g></g><g fill="#ffffff" fill-opacity="1"><g transform="translate(292.68753, 328.010191)"><g><path d="M 25.078125 0 C 24.429688 0 23.957031 -0.382812 23.65625 -1.15625 C 23.351562 -1.9375 23.164062 -2.890625 23.09375 -4.015625 L 22.9375 -6.5625 C 22.882812 -7.1875 22.773438 -7.71875 22.609375 -8.15625 C 22.453125 -8.59375 22.15625 -8.953125 21.71875 -9.234375 C 21.28125 -9.523438 20.691406 -9.738281 19.953125 -9.875 C 19.222656 -10.007812 18.269531 -10.078125 17.09375 -10.078125 L 8.25 -10.078125 L 8.25 0 L 3.5625 0 L 3.5625 -24.96875 L 17.171875 -24.96875 C 19.046875 -24.96875 20.660156 -24.789062 22.015625 -24.4375 C 23.378906 -24.09375 24.507812 -23.609375 25.40625 -22.984375 C 26.3125 -22.359375 26.972656 -21.628906 27.390625 -20.796875 C 27.816406 -19.972656 28.03125 -19.078125 28.03125 -18.109375 C 28.03125 -17.429688 27.929688 -16.765625 27.734375 -16.109375 C 27.535156 -15.460938 27.195312 -14.863281 26.71875 -14.3125 C 26.25 -13.769531 25.613281 -13.285156 24.8125 -12.859375 C 24.007812 -12.429688 23 -12.101562 21.78125 -11.875 C 23 -11.78125 23.988281 -11.578125 24.75 -11.265625 C 25.519531 -10.953125 26.125 -10.554688 26.5625 -10.078125 C 27 -9.609375 27.300781 -9.050781 27.46875 -8.40625 C 27.644531 -7.769531 27.734375 -7.09375 27.734375 -6.375 L 27.78125 -4.3125 C 27.800781 -3.4375 27.910156 -2.671875 28.109375 -2.015625 C 28.304688 -1.367188 28.707031 -0.734375 29.3125 -0.109375 L 29.3125 0 Z M 23.3125 -17.5 C 23.3125 -17.957031 23.210938 -18.394531 23.015625 -18.8125 C 22.816406 -19.238281 22.503906 -19.617188 22.078125 -19.953125 C 21.648438 -20.296875 21.085938 -20.566406 20.390625 -20.765625 C 19.691406 -20.960938 18.84375 -21.0625 17.84375 -21.0625 L 8.25 -21.0625 L 8.25 -13.5625 L 18.25 -13.5625 C 19.976562 -13.5625 21.253906 -13.914062 22.078125 -14.625 C 22.898438 -15.34375 23.3125 -16.203125 23.3125 -17.203125 Z M 23.3125 -17.5 "/></g></g></g><g fill="#ffffff" fill-opacity="1"><g transform="translate(323.75558, 328.010191)"><g><path d="M 3.5625 0 L 3.5625 -24.96875 L 8.25 -24.96875 L 8.25 0 Z M 3.5625 0 "/></g></g></g><g fill="#ffffff" fill-opacity="1"><g transform="translate(335.560686, 328.010191)"><g><path d="M 26.046875 0 L 9.828125 -16.71875 L 8.25 -18.484375 L 8.25 0 L 3.5625 0 L 3.5625 -24.96875 L 8.0625 -24.96875 L 23.796875 -8.28125 L 25.421875 -6.484375 L 25.421875 -24.96875 L 30.09375 -24.96875 L 30.09375 0 Z M 26.046875 0 "/></g></g></g></svg>