<svg xmlns="http://www.w3.org/2000/svg" xmlns:xlink="http://www.w3.org/1999/xlink" width="500" zoomAndPan="magnify" viewBox="0 0 375 374.999991" height="500" preserveAspectRatio="xMidYMid meet" version="1.0"><defs><clipPath id="63c717463f"><path d="M 112.5 37.5 L 262.5 37.5 L 262.5 337.5 L 112.5 337.5 Z M 112.5 37.5 " clip-rule="nonzero"/></clipPath></defs><g clip-path="url(#63c717463f)"><path fill="#000000" d="M 187.75 37.5 C 158.371094 37.5 134.179688 61.691406 134.179688 91.070312 L 134.179688 211.523438 C 121.371094 224.917969 112.5 242.410156 112.5 262.5 C 112.5 303.765625 146.234375 337.5 187.5 337.5 C 228.765625 337.5 262.5 303.765625 262.5 262.5 C 262.5 242.660156 253.878906 225.335938 241.324219 211.941406 L 241.324219 91.070312 C 241.324219 61.691406 217.132812 37.5 187.75 37.5 Z M 187.75 58.929688 C 205.496094 58.929688 219.894531 73.324219 219.894531 91.070312 L 219.894531 215.121094 C 219.894531 218.136719 221.148438 220.980469 223.410156 222.992188 C 234.292969 232.867188 241.070312 246.761719 241.070312 262.5 C 241.070312 292.214844 217.214844 316.070312 187.5 316.070312 C 157.785156 316.070312 133.929688 292.214844 133.929688 262.5 C 133.929688 246.597656 140.960938 232.617188 152.007812 222.65625 C 154.269531 220.648438 155.609375 217.800781 155.609375 214.703125 L 155.609375 91.070312 C 155.609375 73.324219 170.003906 58.929688 187.75 58.929688 Z M 176.785156 123.214844 L 176.785156 232.28125 C 163.980469 236.800781 155.355469 248.855469 155.355469 262.5 C 155.355469 280.246094 169.753906 294.644531 187.5 294.644531 C 205.246094 294.644531 219.644531 280.246094 219.644531 262.5 C 219.644531 248.855469 211.019531 236.800781 198.214844 232.28125 L 198.214844 123.214844 Z M 176.785156 123.214844 " fill-opacity="1" fill-rule="nonzero"/></g></svg>