<svg xmlns="http://www.w3.org/2000/svg" xmlns:xlink="http://www.w3.org/1999/xlink" width="500" zoomAndPan="magnify" viewBox="0 0 375 374.999991" height="500" preserveAspectRatio="xMidYMid meet" version="1.0"><defs><clipPath id="99cc467726"><path d="M 167 37.5 L 208 37.5 L 208 73 L 167 73 Z M 167 37.5 " clip-rule="nonzero"/></clipPath><clipPath id="2d59457c6e"><path d="M 37.5 167 L 73 167 L 73 208 L 37.5 208 Z M 37.5 167 " clip-rule="nonzero"/></clipPath><clipPath id="85acfbca16"><path d="M 167 302 L 208 302 L 208 337.5 L 167 337.5 Z M 167 302 " clip-rule="nonzero"/></clipPath><clipPath id="d70134c439"><path d="M 302 167 L 337.5 167 L 337.5 208 L 302 208 Z M 302 167 " clip-rule="nonzero"/></clipPath></defs><path fill="#000000" d="M 289.636719 187.507812 C 289.636719 189.179688 289.597656 190.851562 289.515625 192.519531 C 289.433594 194.1875 289.308594 195.855469 289.144531 197.519531 C 288.980469 199.183594 288.777344 200.839844 288.53125 202.492188 C 288.285156 204.148438 288 205.792969 287.675781 207.433594 C 287.347656 209.070312 286.984375 210.703125 286.578125 212.324219 C 286.171875 213.945312 285.726562 215.554688 285.238281 217.15625 C 284.753906 218.753906 284.230469 220.339844 283.667969 221.914062 C 283.105469 223.488281 282.503906 225.046875 281.863281 226.589844 C 281.222656 228.136719 280.546875 229.664062 279.832031 231.171875 C 279.117188 232.683594 278.367188 234.175781 277.578125 235.652344 C 276.789062 237.125 275.964844 238.578125 275.105469 240.011719 C 274.246094 241.445312 273.355469 242.859375 272.425781 244.246094 C 271.496094 245.636719 270.535156 247.003906 269.539062 248.347656 C 268.542969 249.6875 267.515625 251.003906 266.457031 252.296875 C 265.394531 253.589844 264.304688 254.855469 263.179688 256.09375 C 262.058594 257.332031 260.90625 258.542969 259.722656 259.722656 C 258.542969 260.90625 257.332031 262.058594 256.09375 263.179688 C 254.855469 264.304688 253.589844 265.394531 252.296875 266.453125 C 251.007812 267.515625 249.6875 268.542969 248.347656 269.539062 C 247.003906 270.535156 245.636719 271.496094 244.25 272.425781 C 242.859375 273.351562 241.445312 274.246094 240.011719 275.105469 C 238.578125 275.964844 237.125 276.789062 235.652344 277.578125 C 234.175781 278.367188 232.683594 279.117188 231.175781 279.832031 C 229.664062 280.546875 228.136719 281.222656 226.589844 281.863281 C 225.046875 282.503906 223.488281 283.105469 221.914062 283.667969 C 220.339844 284.230469 218.753906 284.753906 217.15625 285.238281 C 215.554688 285.722656 213.945312 286.167969 212.324219 286.574219 C 210.703125 286.980469 209.070312 287.347656 207.433594 287.675781 C 205.792969 288 204.148438 288.285156 202.492188 288.53125 C 200.839844 288.777344 199.183594 288.980469 197.519531 289.144531 C 195.855469 289.308594 194.1875 289.429688 192.519531 289.511719 C 190.851562 289.59375 189.179688 289.636719 187.507812 289.636719 C 185.835938 289.636719 184.167969 289.59375 182.496094 289.511719 C 180.828125 289.433594 179.160156 289.308594 177.5 289.144531 C 175.835938 288.980469 174.175781 288.777344 172.523438 288.53125 C 170.871094 288.285156 169.222656 288 167.585938 287.675781 C 165.945312 287.347656 164.316406 286.980469 162.691406 286.574219 C 161.070312 286.167969 159.460938 285.722656 157.863281 285.238281 C 156.261719 284.753906 154.675781 284.230469 153.101562 283.667969 C 151.527344 283.105469 149.96875 282.503906 148.425781 281.863281 C 146.882812 281.222656 145.355469 280.546875 143.84375 279.832031 C 142.332031 279.117188 140.839844 278.367188 139.367188 277.578125 C 137.890625 276.789062 136.4375 275.964844 135.003906 275.105469 C 133.570312 274.246094 132.160156 273.351562 130.769531 272.425781 C 129.378906 271.496094 128.011719 270.535156 126.671875 269.539062 C 125.328125 268.542969 124.011719 267.515625 122.71875 266.453125 C 121.425781 265.394531 120.160156 264.304688 118.921875 263.179688 C 117.683594 262.058594 116.472656 260.90625 115.292969 259.722656 C 114.109375 258.542969 112.957031 257.332031 111.835938 256.09375 C 110.714844 254.855469 109.621094 253.589844 108.5625 252.296875 C 107.5 251.003906 106.472656 249.6875 105.476562 248.347656 C 104.480469 247.003906 103.519531 245.636719 102.589844 244.246094 C 101.664062 242.859375 100.769531 241.445312 99.910156 240.011719 C 99.050781 238.578125 98.226562 237.125 97.4375 235.652344 C 96.652344 234.175781 95.898438 232.683594 95.183594 231.171875 C 94.46875 229.664062 93.792969 228.136719 93.152344 226.589844 C 92.515625 225.046875 91.914062 223.488281 91.351562 221.914062 C 90.785156 220.339844 90.261719 218.753906 89.777344 217.15625 C 89.292969 215.554688 88.847656 213.945312 88.441406 212.324219 C 88.035156 210.703125 87.667969 209.070312 87.34375 207.433594 C 87.015625 205.792969 86.730469 204.148438 86.484375 202.492188 C 86.238281 200.839844 86.035156 199.183594 85.871094 197.519531 C 85.707031 195.855469 85.585938 194.1875 85.503906 192.519531 C 85.421875 190.851562 85.378906 189.179688 85.378906 187.507812 C 85.378906 185.835938 85.421875 184.167969 85.503906 182.496094 C 85.585938 180.828125 85.707031 179.160156 85.871094 177.496094 C 86.035156 175.835938 86.238281 174.175781 86.484375 172.523438 C 86.730469 170.871094 87.015625 169.222656 87.34375 167.582031 C 87.667969 165.945312 88.035156 164.3125 88.441406 162.691406 C 88.847656 161.070312 89.292969 159.460938 89.777344 157.863281 C 90.261719 156.261719 90.785156 154.675781 91.351562 153.101562 C 91.914062 151.527344 92.515625 149.96875 93.152344 148.425781 C 93.792969 146.878906 94.46875 145.351562 95.183594 143.84375 C 95.898438 142.332031 96.652344 140.839844 97.4375 139.363281 C 98.226562 137.890625 99.050781 136.4375 99.910156 135.003906 C 100.769531 133.570312 101.664062 132.15625 102.589844 130.769531 C 103.519531 129.378906 104.480469 128.011719 105.476562 126.671875 C 106.472656 125.328125 107.5 124.011719 108.5625 122.71875 C 109.621094 121.425781 110.714844 120.160156 111.835938 118.921875 C 112.957031 117.683594 114.109375 116.472656 115.292969 115.292969 C 116.472656 114.109375 117.683594 112.957031 118.921875 111.835938 C 120.160156 110.714844 121.425781 109.621094 122.71875 108.5625 C 124.011719 107.5 125.328125 106.472656 126.671875 105.476562 C 128.011719 104.480469 129.378906 103.519531 130.769531 102.589844 C 132.160156 101.664062 133.570312 100.769531 135.003906 99.910156 C 136.4375 99.050781 137.890625 98.226562 139.367188 97.4375 C 140.839844 96.652344 142.332031 95.898438 143.84375 95.183594 C 145.355469 94.46875 146.882812 93.792969 148.425781 93.152344 C 149.96875 92.515625 151.527344 91.914062 153.101562 91.347656 C 154.675781 90.785156 156.261719 90.261719 157.863281 89.777344 C 159.460938 89.292969 161.070312 88.847656 162.691406 88.441406 C 164.316406 88.035156 165.945312 87.667969 167.585938 87.339844 C 169.222656 87.015625 170.871094 86.730469 172.523438 86.484375 C 174.175781 86.238281 175.835938 86.035156 177.5 85.871094 C 179.160156 85.707031 180.828125 85.585938 182.496094 85.503906 C 184.167969 85.421875 185.835938 85.378906 187.507812 85.378906 C 189.179688 85.378906 190.851562 85.421875 192.519531 85.503906 C 194.1875 85.585938 195.855469 85.707031 197.519531 85.871094 C 199.183594 86.035156 200.839844 86.238281 202.492188 86.484375 C 204.148438 86.730469 205.792969 87.015625 207.433594 87.339844 C 209.070312 87.667969 210.703125 88.035156 212.324219 88.441406 C 213.945312 88.847656 215.554688 89.292969 217.15625 89.777344 C 218.753906 90.261719 220.339844 90.785156 221.914062 91.347656 C 223.488281 91.914062 225.046875 92.515625 226.589844 93.152344 C 228.136719 93.792969 229.664062 94.46875 231.175781 95.183594 C 232.683594 95.898438 234.175781 96.652344 235.652344 97.4375 C 237.125 98.226562 238.578125 99.050781 240.011719 99.910156 C 241.445312 100.769531 242.859375 101.664062 244.25 102.589844 C 245.636719 103.519531 247.003906 104.480469 248.347656 105.476562 C 249.6875 106.472656 251.007812 107.5 252.296875 108.5625 C 253.589844 109.621094 254.855469 110.714844 256.09375 111.835938 C 257.332031 112.957031 258.542969 114.109375 259.722656 115.292969 C 260.90625 116.472656 262.058594 117.683594 263.179688 118.921875 C 264.304688 120.160156 265.394531 121.425781 266.457031 122.71875 C 267.515625 124.011719 268.542969 125.328125 269.539062 126.671875 C 270.535156 128.011719 271.496094 129.378906 272.425781 130.769531 C 273.355469 132.15625 274.246094 133.570312 275.105469 135.003906 C 275.964844 136.4375 276.789062 137.890625 277.578125 139.363281 C 278.367188 140.839844 279.117188 142.332031 279.832031 143.84375 C 280.546875 145.351562 281.222656 146.878906 281.863281 148.425781 C 282.503906 149.96875 283.105469 151.527344 283.667969 153.101562 C 284.230469 154.675781 284.753906 156.261719 285.238281 157.863281 C 285.726562 159.460938 286.171875 161.070312 286.578125 162.691406 C 286.984375 164.3125 287.347656 165.945312 287.675781 167.582031 C 288 169.222656 288.285156 170.871094 288.53125 172.523438 C 288.777344 174.175781 288.980469 175.835938 289.144531 177.496094 C 289.308594 179.160156 289.433594 180.828125 289.515625 182.496094 C 289.597656 184.167969 289.636719 185.835938 289.636719 187.507812 Z M 289.636719 187.507812 " fill-opacity="1" fill-rule="nonzero"/><g clip-path="url(#99cc467726)"><path fill="#000000" d="M 167.347656 72.429688 L 187.507812 37.5 L 207.667969 72.429688 Z M 167.347656 72.429688 " fill-opacity="1" fill-rule="nonzero"/></g><path fill="#000000" d="M 112.507812 97.929688 L 112.503906 57.597656 L 147.429688 77.765625 Z M 112.507812 97.929688 " fill-opacity="1" fill-rule="nonzero"/><path fill="#000000" d="M 77.765625 147.429688 L 57.597656 112.507812 L 97.929688 112.511719 Z M 77.765625 147.429688 " fill-opacity="1" fill-rule="nonzero"/><g clip-path="url(#2d59457c6e)"><path fill="#000000" d="M 72.429688 207.671875 L 37.5 187.511719 L 72.429688 167.347656 Z M 72.429688 207.671875 " fill-opacity="1" fill-rule="nonzero"/></g><path fill="#000000" d="M 97.929688 262.507812 L 57.597656 262.519531 L 77.765625 227.589844 Z M 97.929688 262.507812 " fill-opacity="1" fill-rule="nonzero"/><path fill="#000000" d="M 147.429688 297.25 L 112.503906 317.425781 L 112.507812 277.089844 Z M 147.429688 297.25 " fill-opacity="1" fill-rule="nonzero"/><g clip-path="url(#85acfbca16)"><path fill="#000000" d="M 207.667969 302.589844 L 187.511719 337.519531 L 167.347656 302.589844 Z M 207.667969 302.589844 " fill-opacity="1" fill-rule="nonzero"/></g><path fill="#000000" d="M 262.507812 277.089844 L 262.515625 317.421875 L 227.585938 297.25 Z M 262.507812 277.089844 " fill-opacity="1" fill-rule="nonzero"/><path fill="#000000" d="M 297.25 227.589844 L 317.425781 262.511719 L 277.089844 262.507812 Z M 297.25 227.589844 " fill-opacity="1" fill-rule="nonzero"/><g clip-path="url(#d70134c439)"><path fill="#000000" d="M 302.585938 167.347656 L 337.519531 187.507812 L 302.585938 207.671875 Z M 302.585938 167.347656 " fill-opacity="1" fill-rule="nonzero"/></g><path fill="#000000" d="M 277.089844 112.511719 L 317.421875 112.5 L 297.25 147.429688 Z M 277.089844 112.511719 " fill-opacity="1" fill-rule="nonzero"/><path fill="#000000" d="M 227.585938 77.769531 L 262.511719 57.59375 L 262.507812 97.929688 Z M 227.585938 77.769531 " fill-opacity="1" fill-rule="nonzero"/></svg>