<svg xmlns="http://www.w3.org/2000/svg" xmlns:xlink="http://www.w3.org/1999/xlink" width="500" zoomAndPan="magnify" viewBox="0 0 375 374.999991" height="500" preserveAspectRatio="xMidYMid meet" version="1.0"><defs><clipPath id="7a6521db04"><path d="M 37.5 64 L 233 64 L 233 157 L 37.5 157 Z M 37.5 64 " clip-rule="nonzero"/></clipPath><clipPath id="911909b62c"><path d="M 69 102 L 337.5 102 L 337.5 195 L 69 195 Z M 69 102 " clip-rule="nonzero"/></clipPath><clipPath id="53580f66b1"><path d="M 37.5 219 L 233 219 L 233 311.4375 L 37.5 311.4375 Z M 37.5 219 " clip-rule="nonzero"/></clipPath></defs><g clip-path="url(#7a6521db04)"><path fill="#000000" d="M 186.652344 156.25 L 44.796875 156.25 C 40.761719 156.25 37.492188 152.976562 37.492188 148.9375 C 37.492188 144.898438 40.761719 141.625 44.796875 141.625 L 186.652344 141.625 C 203.957031 141.625 218.042969 127.523438 218.042969 110.1875 C 218.042969 92.855469 203.960938 78.75 186.652344 78.75 C 169.347656 78.75 155.261719 92.847656 155.261719 110.1875 C 155.261719 114.226562 151.992188 117.5 147.960938 117.5 C 143.925781 117.5 140.65625 114.226562 140.65625 110.1875 C 140.65625 97.882812 145.445312 86.3125 154.128906 77.613281 C 162.816406 68.917969 174.367188 64.125 186.652344 64.125 C 198.9375 64.125 210.488281 68.917969 219.171875 77.613281 C 227.859375 86.3125 232.644531 97.882812 232.644531 110.1875 C 232.644531 122.492188 227.859375 134.058594 219.171875 142.757812 C 210.488281 151.457031 198.9375 156.25 186.652344 156.25 Z M 186.652344 156.25 " fill-opacity="1" fill-rule="nonzero"/></g><g clip-path="url(#911909b62c)"><path fill="#000000" d="M 291.511719 195 L 76.679688 195 C 72.644531 195 69.378906 191.726562 69.378906 187.6875 C 69.378906 183.648438 72.644531 180.375 76.679688 180.375 L 291.511719 180.375 C 308.816406 180.375 322.902344 166.273438 322.902344 148.9375 C 322.902344 131.605469 308.824219 117.5 291.511719 117.5 C 274.203125 117.5 260.121094 131.597656 260.121094 148.9375 C 260.121094 152.976562 256.855469 156.25 252.820312 156.25 C 248.789062 156.25 245.519531 152.976562 245.519531 148.9375 C 245.519531 136.632812 250.304688 125.066406 258.992188 116.367188 C 267.675781 107.667969 279.226562 102.875 291.511719 102.875 C 303.796875 102.875 315.347656 107.667969 324.035156 116.367188 C 332.71875 125.066406 337.507812 136.632812 337.507812 148.9375 C 337.507812 161.242188 332.71875 172.808594 324.035156 181.507812 C 315.347656 190.214844 303.796875 195 291.511719 195 Z M 291.511719 195 " fill-opacity="1" fill-rule="nonzero"/></g><g clip-path="url(#53580f66b1)"><path fill="#000000" d="M 186.652344 311.257812 C 174.367188 311.257812 162.816406 306.464844 154.128906 297.765625 C 145.445312 289.066406 140.65625 277.5 140.65625 265.195312 C 140.65625 261.15625 143.925781 257.882812 147.960938 257.882812 C 151.992188 257.882812 155.261719 261.15625 155.261719 265.195312 C 155.261719 282.527344 169.339844 296.632812 186.652344 296.632812 C 203.957031 296.632812 218.042969 282.53125 218.042969 265.195312 C 218.042969 247.863281 203.960938 233.757812 186.652344 233.757812 L 44.796875 233.757812 C 40.761719 233.757812 37.492188 230.484375 37.492188 226.445312 C 37.492188 222.40625 40.761719 219.132812 44.796875 219.132812 L 186.652344 219.132812 C 198.9375 219.132812 210.488281 223.925781 219.171875 232.625 C 227.859375 241.320312 232.644531 252.890625 232.644531 265.195312 C 232.644531 277.5 227.859375 289.066406 219.171875 297.765625 C 210.488281 306.464844 198.9375 311.257812 186.652344 311.257812 Z M 186.652344 311.257812 " fill-opacity="1" fill-rule="nonzero"/></g></svg>